<svg width="100" height="100" viewBox="0 0 100 100" fill="none" xmlns="http://www.w3.org/2000/svg">
<circle cx="50" cy="50" r="50" fill="#FFC000"/>
<path fillRule="evenodd" clipRule="evenodd" d="M64.7098 25.1036C62.5296 25.4244 60.2903 26.7807 58.92 28.6101C58.3625 29.3544 57.7281 30.6689 57.4799 31.5936C57.179 32.7152 57.1188 34.2867 57.3315 35.4676C57.4836 36.3119 57.4856 36.4305 57.3509 36.6846C57.2688 36.8395 52.6064 41.5551 46.9898 47.1638L36.7779 57.3614L36.1587 57.3001C35.8182 57.2665 35.1657 57.1956 34.7087 57.1426C31.5372 56.7745 28.2369 58.3905 26.3923 61.2146C25.4569 62.6466 25.0048 64.2094 25 66.0271C24.9933 68.6142 25.9234 70.7622 27.8341 72.5719C31.3142 75.868 36.7403 75.8003 40.204 72.4176C42.1796 70.4883 43.1764 67.699 42.828 65.0751C42.7584 64.551 42.6795 63.9298 42.6527 63.6946L42.6038 63.2669L52.9016 52.9661C58.5654 47.3008 63.2989 42.6257 63.4206 42.5773C63.5646 42.5199 63.9061 42.5397 64.398 42.6337C65.7973 42.9014 67.5292 42.8019 68.8247 42.3796C72.3177 41.2408 74.7627 38.0843 74.9475 34.4753L75 33.4496L72.5693 35.8594C71.0487 37.3667 70.0394 38.2938 69.8739 38.3354C69.6779 38.3846 68.8763 38.1575 66.7723 37.4565C65.2118 36.9366 63.846 36.4379 63.7372 36.348C63.6043 36.2384 63.2202 35.2279 62.5681 33.2715C61.7502 30.8177 61.6123 30.317 61.6942 30.0968C61.7476 29.9529 62.8776 28.7474 64.2051 27.4177L66.6187 25L65.9352 25.0119C65.5594 25.0185 65.0079 25.0597 64.7098 25.1036ZM26.5958 26.5148L25.2927 27.8198L26.7871 30.4394C27.609 31.8801 28.2937 33.0728 28.3088 33.0898C28.3238 33.1068 29.0991 33.3155 30.0317 33.5538L31.7271 33.9869L38.2019 40.4574L44.6766 46.9281L45.8013 45.8073C46.4199 45.1908 46.926 44.6422 46.926 44.5881C46.926 44.5341 44.0286 41.5882 40.4874 38.0417L34.0488 31.5936L33.6399 29.9314L33.2309 28.2692L31.0215 27.0009C29.8063 26.3033 28.6067 25.6149 28.3556 25.4711L27.8989 25.2096L26.5958 26.5148ZM59.849 40.1135C60.1596 40.4207 60.4138 40.7175 60.4138 40.7731C60.4138 40.8285 56.0162 45.2689 50.6414 50.6406L40.8689 60.4072L40.2309 59.7753L39.593 59.1434L49.3924 49.3491C54.7819 43.9622 59.2125 39.5548 59.2379 39.5548C59.2633 39.5548 59.5384 39.8062 59.849 40.1135ZM54.2312 54.1836L50.4441 57.9695L51.1331 58.6581L51.8221 59.3467L52.39 59.0654C54.7861 57.8784 57.3249 60.4716 56.0531 62.807L55.7829 63.3033L60.9326 68.4501L66.0822 73.597L69.8943 69.788L73.7062 65.979L68.5622 60.8372L63.4181 55.6952L62.9237 55.9516C62.2237 56.3145 61.2253 56.3609 60.5317 56.0627C59.0617 55.4307 58.4136 53.5697 59.1838 52.1925L59.4434 51.7283L58.7827 51.063C58.4195 50.6971 58.0988 50.3977 58.0702 50.3977C58.0417 50.3977 56.3141 52.1014 54.2312 54.1836ZM64.9847 63.6111L69.4081 68.0328L68.7703 68.6646L68.1324 69.2965L63.6639 64.8305L59.1953 60.3644L59.777 59.7768C60.097 59.4537 60.4043 59.1892 60.46 59.1892C60.5156 59.1892 62.5517 61.179 64.9847 63.6111ZM37.2001 64.1467C37.7813 65.1003 38.2565 65.9245 38.2561 65.9782C38.2557 66.032 37.7846 66.8562 37.2092 67.8098L36.1628 69.5437H33.9937H31.8246L30.7744 67.794C30.1968 66.8316 29.7241 66.0145 29.7241 65.9782C29.7241 65.942 30.1968 65.1249 30.7744 64.1625L31.8246 62.4128H33.984H36.1433L37.2001 64.1467ZM71.1882 71.0345C69.294 72.9283 67.7441 74.5035 67.7441 74.5348C67.7441 74.6639 68.9204 74.8672 69.65 74.8644C71.8828 74.8559 73.8057 73.4982 74.6567 71.3293C74.8875 70.7411 74.9163 70.5361 74.9141 69.4948C74.9125 68.72 74.8643 68.1987 74.772 67.957L74.6323 67.5913L71.1882 71.0345Z" fill="#333333"/>
</svg>
