<svg width="100" height="100" viewBox="0 0 100 100" fill="none" xmlns="http://www.w3.org/2000/svg">
<circle cx="50" cy="50" r="50" fill="#FFC000"/>
<path fillRule="evenodd" clipRule="evenodd" d="M30.011 25.1247C29.1895 25.4212 28.5128 26.059 28.1485 26.8803C28.0122 27.1873 27.2944 30.2328 26.4359 34.1453C25.0045 40.6694 24.9596 40.9087 25.0132 41.7445C25.2923 46.1057 28.2628 49.6477 31.8877 49.9416C34.0195 50.1145 36.0639 49.1979 37.6107 47.376L38.2705 46.5988L38.9303 47.3746C41.8726 50.8341 46.3979 50.8341 49.3402 47.3746L50 46.5988L50.6598 47.3746C53.6021 50.8341 58.1274 50.8341 61.0697 47.3746L61.7295 46.5988L62.3893 47.376C63.9361 49.1979 65.9805 50.1145 68.1123 49.9416C71.7372 49.6477 74.7077 46.1057 74.9868 41.7445C75.0404 40.9087 74.9955 40.6694 73.5641 34.1453C72.7056 30.2328 71.9878 27.1873 71.8515 26.8803C71.5692 26.2438 70.9582 25.5892 70.343 25.2643L69.8912 25.0257L50.1466 25.0047C34.4688 24.9881 30.3215 25.0127 30.011 25.1247ZM37.6352 51.9018C36.9983 52.3611 35.7421 52.945 34.7974 53.221C32.8691 53.7844 30.3227 53.5414 28.4695 52.6173L28.1009 52.4335L28.1274 62.3459L28.1538 72.2583L28.4099 72.882C28.7354 73.6749 29.2596 74.2738 29.9537 74.6456L30.4997 74.9381L37.122 74.9691L43.7443 75V67.8507V60.7014H50H56.2557V67.8507V75L62.878 74.9691L69.5003 74.9381L70.0463 74.6456C70.7404 74.2738 71.2646 73.6749 71.5901 72.882L71.8462 72.2583L71.8726 62.3459L71.8991 52.4335L71.5305 52.6173C70.2389 53.2614 68.3162 53.6303 66.8601 53.5134C65.3643 53.3933 63.6208 52.7737 62.4055 51.9303C62.1002 51.7185 61.7977 51.5452 61.7331 51.5452C61.6686 51.5452 61.3665 51.7121 61.0617 51.9161C58.0093 53.9594 53.7202 53.9594 50.6678 51.9161C50.363 51.7121 50.0626 51.5452 50 51.5452C49.9374 51.5452 49.637 51.7121 49.3322 51.9161C46.2798 53.9594 41.9907 53.9594 38.9383 51.9161C38.6335 51.7121 38.3256 51.5462 38.2541 51.5473C38.1825 51.5484 37.904 51.708 37.6352 51.9018Z" fill="#333333"/>
</svg>
