<svg width="100" height="100" viewBox="0 0 100 100" fill="none" xmlns="http://www.w3.org/2000/svg">
<circle cx="50" cy="50" r="50" fill="#FFC000"/>
<path fill-rule="evenodd" 
="evenodd" d="M48.5161 20.1613C47.4461 20.4617 46.819 20.8375 44.5784 22.5209C41.7575 24.6403 41.1949 24.9835 40.1604 25.2164C39.7028 25.3193 38.0907 25.4693 36.5782 25.5495C32.6173 25.7596 31.6322 26.0687 30.1293 27.5738C28.9825 28.7222 28.6854 29.4345 27.8501 33.0383C26.8543 37.334 27.0691 36.9855 22.9482 40.9953C21.0625 42.8302 20.5808 43.5315 20.2065 44.9864C19.7352 46.8185 19.9989 47.9256 21.7502 51.4699C22.5007 52.9886 23.2048 54.5385 23.315 54.9141C23.5884 55.8463 23.566 56.8274 23.2035 59.7914C23.0332 61.1838 22.8931 62.6387 22.8921 63.0244C22.8863 65.2226 24.2501 67.4499 26.2473 68.5037C26.7041 68.7447 28.0341 69.3512 29.2029 69.8514C31.5876 70.8721 32.2054 71.2052 32.9098 71.8496C33.1782 72.0951 34.2015 73.5269 35.1837 75.0313C37.4438 78.4926 38.2726 79.2772 40.2077 79.7875C41.7495 80.1943 42.4884 80.0832 46.3285 78.8688C48.5179 78.1763 48.6173 78.1571 50.0161 78.1593C51.4366 78.1614 51.4863 78.1717 54.2037 79.023C57.9512 80.1968 59.1047 80.2544 60.9698 79.3612C62.2145 78.7651 62.9797 77.9071 64.9292 74.9218C67.1715 71.4879 67.2738 71.3982 70.564 69.9747C71.8787 69.406 73.3281 68.7438 73.7849 68.5031C75.526 67.5856 76.7771 65.8078 77.0546 63.8569C77.1724 63.0293 77.1444 62.4954 76.8497 59.9524C76.4827 56.7846 76.4457 55.8993 76.6474 55.1078C76.7182 54.8293 77.4494 53.2058 78.272 51.5001C79.4841 48.9872 79.7962 48.225 79.9176 47.4828C80.1294 46.1879 79.9335 44.93 79.3242 43.6715C78.9116 42.8192 78.6428 42.4968 77.0923 40.9944C72.9907 37.0203 73.1796 37.3228 72.2047 33.1664C71.8346 31.5884 71.4424 30.0433 71.3332 29.7331C70.8705 28.4184 69.6113 27.0004 68.3605 26.3857C67.2914 25.8602 66.356 25.7003 63.454 25.5471C60.6032 25.3964 59.4728 25.2203 58.6598 24.8003C58.3978 24.6649 57.1192 23.7516 55.8185 22.7707C53.348 20.9074 52.6153 20.4652 51.4998 20.1646C50.6906 19.9465 49.2865 19.9449 48.5161 20.1613ZM52.7457 29.4872C54.1801 29.6609 56.3572 30.2356 57.7039 30.796C64.4698 33.6117 69.2792 39.8927 70.2678 47.204C70.4528 48.5724 70.4528 51.3899 70.2678 52.7582C69.3425 59.6022 65.0746 65.576 58.9704 68.5718C56.5428 69.7631 54.1426 70.415 51.5263 70.5936C43.1621 71.1647 35.545 66.8023 31.7592 59.2727C29.3299 54.4407 28.932 48.1977 30.728 43.0873C31.8681 39.8429 34.0417 36.609 36.5519 34.4229C41.1428 30.4245 46.6426 28.7482 52.7457 29.4872ZM48.6411 31.3849C40.1106 32.0113 33.1875 38.4638 31.8141 47.0682C31.568 48.6108 31.568 51.3514 31.8141 52.8941C33.1123 61.0267 39.3655 67.2572 47.4415 68.4646C48.8146 68.6698 51.474 68.6446 52.8927 68.4128C61.3874 67.0249 67.7599 60.0013 68.3776 51.3457C69.1909 39.9494 59.9047 30.5578 48.6411 31.3849ZM59.7039 41.9263C60.4516 42.2819 60.6707 42.5144 61.027 43.33C61.3375 44.0408 61.3079 44.9842 60.9533 45.6784C60.6142 46.3427 49.2881 57.825 48.7036 58.0972C48.1337 58.3626 47.4303 58.3972 46.7035 58.1954C46.2892 58.0805 45.6181 57.4674 42.7896 54.6202C40.9121 52.7301 39.2645 51.0025 39.1284 50.781C38.8145 50.27 38.6994 49.3058 38.8741 48.652C39.0544 47.9783 39.6923 47.218 40.3194 46.9295C40.9443 46.6421 41.9888 46.6222 42.612 46.8859C42.8992 47.0074 43.9329 47.9459 45.3356 49.3588L47.5961 51.6358L52.2542 46.8733C55.5507 43.5032 57.0646 42.041 57.4331 41.8715C58.1429 41.5452 58.9433 41.5645 59.7039 41.9263Z" fill="#333333"/>
</svg>
