<svg width="48" height="48" viewBox="0 0 48 48" fill="none" xmlns="http://www.w3.org/2000/svg">
<path d="M0 4C0 1.79086 1.79086 0 4 0H44C46.2091 0 48 1.79086 48 4V44C48 46.2091 46.2091 48 44 48H4C1.79086 48 0 46.2091 0 44V4Z" fill="#F2F2F2"/>
<path d="M23 31C27.4183 31 31 27.4183 31 23C31 18.5817 27.4183 15 23 15C18.5817 15 15 18.5817 15 23C15 27.4183 18.5817 31 23 31Z" stroke="#FF9900" stroke-width="2" stroke-linecap="round" stroke-linejoin="round"/>
<path d="M33 32.9999L28.65 28.6499" stroke="#FF9900" stroke-width="2" stroke-linecap="round" stroke-linejoin="round"/>
</svg>
