<svg width="70" height="70" viewBox="0 0 70 70" fill="none" xmlns="http://www.w3.org/2000/svg">
<circle cx="35" cy="35" r="35" fill="white"/>
<path fill-rule="evenodd" clip-rule="evenodd" d="M33.0826 15.0857C30.2831 15.349 27.0972 16.4101 24.6252 17.9024C18.1654 21.8022 14.388 29.2766 15.0815 36.7862C15.7246 43.7491 19.9321 49.8632 26.1863 52.9232C30.9867 55.2718 36.2113 55.6367 41.2559 53.9756C48.8767 51.4662 54.2136 44.6897 54.928 36.6159C55.3628 31.7008 53.7754 26.4996 50.6409 22.568C49.8837 21.6183 48.5129 20.2373 47.5562 19.4603C43.5391 16.1979 38.2512 14.5996 33.0826 15.0857ZM37.4247 18.8661C43.1891 19.7336 48.0339 23.5968 50.1818 29.0385C50.9499 30.9845 51.2829 32.7562 51.2859 34.9131C51.2883 36.5985 51.1964 37.3941 50.8256 38.9012C49.5419 44.1187 45.7908 48.3436 40.7316 50.2703C39.8118 50.6205 38.1439 51.0436 37.1267 51.1845C36.1434 51.3208 33.8575 51.3195 32.8697 51.1822C26.2104 50.2562 20.8495 45.4992 19.2101 39.0613C18.8253 37.5503 18.7034 36.5731 18.7034 34.9983C18.7034 33.4959 18.8226 32.4869 19.1662 31.0819C20.5907 25.2556 25.1479 20.6628 30.9541 19.2017C31.5628 19.0485 32.4249 18.881 32.8697 18.8295C33.3146 18.7781 33.8126 18.7204 33.9765 18.7014C34.5189 18.6384 36.5595 18.7359 37.4247 18.8661ZM34.6151 22.3052C34.0266 22.4527 33.6264 22.7723 33.3267 23.3342C33.1759 23.6169 33.1677 23.9359 33.1677 29.5494C33.1677 35.4656 33.1677 35.4666 33.3531 35.8071C33.6233 36.3038 39.3028 41.9386 39.6994 42.1035C40.8861 42.5969 42.235 41.7166 42.235 40.4487C42.235 40.2107 42.1758 39.8736 42.1032 39.6995C42.0159 39.4897 41.1125 38.5218 39.4241 36.8288L36.8766 34.2746L36.8526 28.9534C36.8289 23.6914 36.8266 23.6285 36.6454 23.2917C36.2394 22.5372 35.3716 22.1156 34.6151 22.3052Z" fill="#FFC000"/>
</svg>
