<svg width="45" height="45" viewBox="0 0 45 45" fill="none" xmlns="http://www.w3.org/2000/svg">
<rect width="45" height="45" fill="#E5E5E5"/>
<rect width="1920" height="4039" transform="translate(-413 -3717)" fill="#FBFBFB"/>
<rect width="1920" height="596" transform="translate(-413 -274)" fill="#333333"/>
<circle cx="22.5" cy="22.5" r="22.5" fill="white"/>
<path fill-rule="evenodd" clipRule="evenodd" d="M19.3984 13.7831C15.7201 13.8636 13.3604 14.0483 12.5349 14.3202C11.7717 14.5715 11.0996 15.162 10.7317 15.904C10.0162 17.3473 9.76589 23.144 10.2499 27.0613C10.3555 27.9162 10.5275 28.6496 10.71 29.0242C11.1129 29.8503 11.865 30.4685 12.7404 30.6929C14.1171 31.0458 18.534 31.2469 23.7715 31.195C26.673 31.1663 28.158 31.1212 29.7041 31.0152C32.2019 30.8438 32.8605 30.6528 33.6393 29.8736C34.1294 29.3833 34.3415 28.9784 34.5112 28.2087C35.1207 25.446 35.0945 18.9663 34.4643 16.5761C34.2872 15.9042 34.0691 15.5175 33.619 15.0769C33.079 14.5483 32.5381 14.3027 31.584 14.1527C29.5717 13.8365 24.2818 13.6761 19.3984 13.7831ZM24.5881 21.3622C25.628 21.9588 26.4794 22.4615 26.4801 22.4791C26.4812 22.5046 20.1777 26.1618 20.0273 26.223C20.0053 26.232 19.9873 24.5469 19.9873 22.4783V18.7172L21.3423 19.4972C22.0875 19.9263 23.5481 20.7655 24.5881 21.3622Z" fill="#FFC000"/>
</svg>
