<svg width="45" height="45" viewBox="0 0 45 45" fill="none" xmlns="http://www.w3.org/2000/svg">
<rect width="45" height="45" fill="#E5E5E5"/>
<rect width="1920" height="4039" transform="translate(-277 -3717)" fill="#FBFBFB"/>
<rect width="1920" height="596" transform="translate(-277 -274)" fill="#333333"/>
<circle cx="22.5" cy="22.5" r="22.5" fill="white"/>
<path fillRule="evenodd" clipRule="evenodd" d="M32.5284 12.1029C32.4882 12.1188 31.5433 12.4791 30.4288 12.9036C29.3143 13.3282 27.0292 14.2015 25.3507 14.8444C23.6722 15.4872 19.5853 17.051 16.2687 18.3195C12.952 19.5879 10.0612 20.7102 9.84446 20.8134C9.25745 21.0929 8.93079 21.4837 9.01238 21.8087C9.05276 21.9696 9.28894 22.1967 9.54143 22.3175C9.65623 22.3724 11.0575 22.824 12.6554 23.321L15.5607 24.2247L15.7072 24.1375C15.7877 24.0896 18.6552 22.2968 22.0792 20.1534C25.5033 18.0101 28.4651 16.157 28.6609 16.0354C28.9367 15.8641 29.076 15.8094 29.2787 15.7926C29.5034 15.774 29.5479 15.7847 29.5928 15.8688C29.6346 15.9469 29.6233 15.9967 29.5365 16.1155C29.4767 16.1974 28.0106 17.5337 26.2784 19.0851C24.5463 20.6365 22.1622 22.773 20.9806 23.8329C19.799 24.8927 18.8273 25.7629 18.8213 25.7664C18.8053 25.7761 18.4171 31.2108 18.4171 31.4263V31.6111L18.6246 31.5779C18.7388 31.5596 18.9354 31.4863 19.0616 31.4149C19.1878 31.3435 19.961 30.6424 20.7797 29.8569C21.5985 29.0714 22.2931 28.4287 22.3233 28.4287C22.3535 28.4287 23.6568 29.3657 25.2195 30.511C26.7821 31.6563 28.1815 32.6502 28.3292 32.7197C28.7076 32.8977 29.2574 32.9021 29.5101 32.7291C29.7252 32.5819 29.9553 32.2412 30.0568 31.9199C30.0991 31.7856 30.9945 27.6548 32.0465 22.7402C34.1761 12.7908 34.1012 13.213 33.8382 12.6486C33.6543 12.2541 33.4117 12.1007 32.9479 12.0854C32.7575 12.0791 32.5687 12.087 32.5284 12.1029Z" fill="#FFC000"/>
</svg>
