<svg width="70" height="70" viewBox="0 0 70 70" fill="none" xmlns="http://www.w3.org/2000/svg">
<rect width="70" height="70" fill="#E5E5E5"/>
<rect width="1920" height="4039" transform="translate(-742 -3730)" fill="#FBFBFB"/>
<rect width="1920" height="596" transform="translate(-742 -287)" fill="#333333"/>
<circle cx="35" cy="35" r="35" fill="white"/>
<path fillRule="evenodd" clipRule="evenodd" d="M49.9398 20.9443C49.8834 20.9665 48.5607 21.471 47.0004 22.0653C45.4401 22.6597 42.2409 23.8823 39.891 24.7823C37.5411 25.6823 31.8195 27.8716 27.1762 29.6474C22.5328 31.4233 18.4856 32.9944 18.1822 33.1389C17.3604 33.5303 16.9031 34.0773 17.0173 34.5324C17.0739 34.7576 17.4045 35.0756 17.758 35.2447C17.9187 35.3216 19.8805 35.9539 22.1176 36.6496L26.1849 37.9148L26.39 37.7927C26.5028 37.7257 30.5172 35.2157 35.3109 32.215C40.1046 29.2144 44.2511 26.62 44.5252 26.4497C44.9114 26.21 45.1063 26.1334 45.3902 26.1098C45.7048 26.0837 45.767 26.0988 45.8299 26.2165C45.8884 26.3258 45.8726 26.3955 45.7511 26.5619C45.6674 26.6765 43.6149 28.5474 41.1898 30.7193C38.7648 32.8913 35.4271 35.8824 33.7728 37.3662C32.1185 38.85 30.7582 40.0682 30.7498 40.0732C30.7274 40.0867 30.184 47.6953 30.184 47.9971V48.2557L30.4745 48.2092C30.6343 48.1836 30.9096 48.081 31.0862 47.981C31.2629 47.8811 32.3454 46.8996 33.4916 45.7999C34.6379 44.7002 35.6103 43.8004 35.6526 43.8004C35.6949 43.8004 37.5195 45.1122 39.7072 46.7156C41.895 48.319 43.8541 49.7105 44.0609 49.8078C44.5906 50.057 45.3604 50.0632 45.7142 49.821C46.0152 49.6149 46.3375 49.1379 46.4795 48.6881C46.5388 48.5001 47.7923 42.7169 49.265 35.8365C52.2466 21.9073 52.1417 22.4984 51.7734 21.7082C51.5161 21.156 51.1764 20.9411 50.527 20.9198C50.2605 20.911 49.9962 20.922 49.9398 20.9443Z" fill="#FFC000"/>
</svg>
