<svg width="70" height="70" viewBox="0 0 70 70" fill="none" xmlns="http://www.w3.org/2000/svg">
<rect width="70" height="70" fill="#E5E5E5"/>
<rect width="1920" height="4039" transform="translate(-1208 -3746)" fill="#FBFBFB"/>
<rect width="1920" height="596" transform="translate(-1208 -303)" fill="#333333"/>
<circle cx="35" cy="35" r="35" fill="white"/>
<path fill-rule="evenodd" clipRule="evenodd" d="M22.1625 22.0989C21.1368 22.3033 20.0373 22.9318 19.3561 23.7032C18.7696 24.3673 18.3211 25.1873 18.1773 25.8585L18.1333 26.0636L26.7764 31.3445C31.5301 34.249 35.4557 36.6254 35.5 36.6254C35.5443 36.6254 39.4699 34.249 44.2236 31.3445L52.8667 26.0636L52.8227 25.8585C52.5218 24.4544 51.2623 23.0104 49.8118 22.4065C48.7742 21.9746 49.5157 21.9955 35.4427 22.0025C25.1322 22.0077 22.5253 22.0266 22.1625 22.0989ZM18 36.3007C18.0005 42.9885 18.0062 43.3146 18.1334 43.8453C18.3913 44.9208 18.8542 45.6985 19.7055 46.4867C20.2442 46.9855 20.9775 47.398 21.7594 47.6423L22.2721 47.8025H35.5H48.7279L49.2406 47.6423C50.0225 47.398 50.7558 46.9855 51.2945 46.4867C52.1458 45.6985 52.6087 44.9208 52.8666 43.8453C52.9938 43.3146 52.9995 42.9885 53 36.3007C53.0003 32.4562 52.9846 29.3108 52.9652 29.3108C52.9459 29.3108 49.2214 31.5713 44.6887 34.3342C40.156 37.0972 36.3101 39.4044 36.1423 39.4613C35.7529 39.5935 35.2471 39.5935 34.8577 39.4613C34.6899 39.4044 30.844 37.0972 26.3113 34.3342C21.7786 31.5713 18.0541 29.3108 18.0348 29.3108C18.0154 29.3108 17.9997 32.4562 18 36.3007Z" fill="#FFC000"/>
</svg>
