<svg width="70" height="70" viewBox="0 0 70 70" fill="none" xmlns="http://www.w3.org/2000/svg">
<rect width="70" height="70" fill="#E5E5E5"/>
<rect width="1920" height="4039" transform="translate(-1208 -3635)" fill="#FBFBFB"/>
<rect width="1920" height="596" transform="translate(-1208 -192)" fill="#333333"/>
<circle cx="35" cy="35" r="35" fill="white"/>
<path fillRule="evenodd" clipRule="evenodd" d="M25.2314 18.1324C23.7884 18.7875 20.7877 21.9742 18.9508 24.8022C17.971 26.3107 17.8771 26.6583 18.1006 27.9491C18.8238 32.1246 21.2364 36.7281 25.1127 41.3291C26.0313 42.4194 28.5778 44.966 29.6682 45.8846C32.3967 48.1834 35.1763 50.0039 37.7741 51.1939C39.9398 52.1859 42.3169 52.8867 43.8488 52.9848C44.4085 53.0205 44.4583 53.0106 44.9709 52.7604C46.9946 51.7728 51.0398 48.4146 52.3419 46.6412C52.9736 45.7809 53.1104 45.2781 52.9016 44.5843C52.6536 43.7602 52.2456 43.3829 49.9794 41.8817C48.0935 40.6325 47.0181 39.9924 45.7104 39.3408C43.9475 38.4622 43.1473 38.2864 42.4152 38.6167C41.9636 38.8205 41.561 39.2003 40.5114 40.4127C40.031 40.9675 39.5961 41.4376 39.5449 41.4573C39.421 41.5047 37.9519 40.9013 37.1749 40.4837C34.242 38.9075 31.894 36.5238 30.4166 33.6227C30.0822 32.9662 29.7016 32.0646 29.5558 31.5839C29.5146 31.4481 29.6488 31.3035 30.4776 30.591C32.1665 29.139 32.5343 28.6471 32.5347 27.8396C32.5351 26.7603 31.3173 24.3459 29.0387 20.9084C28.5467 20.1661 27.9926 19.3641 27.8075 19.1263C27.062 18.1683 26.0296 17.7699 25.2314 18.1324Z" fill="#FFC000"/>
</svg>
