<svg width="45" height="45" viewBox="0 0 45 45" fill="none" xmlns="http://www.w3.org/2000/svg">
<g clip-path="url(#clip0_1701_2970)">
<path d="M22.5 45C34.9264 45 45 34.9264 45 22.5C45 10.0736 34.9264 0 22.5 0C10.0736 0 0 10.0736 0 22.5C0 34.9264 10.0736 45 22.5 45Z" fill="white"/>
<path fill-rule="evenodd" clip-rule="evenodd" d="M18.002 10.0426C16.4489 10.0997 15.749 10.1968 14.8032 10.4862C13.7078 10.8213 12.8416 11.3473 12.059 12.1525C10.8355 13.4112 10.2699 14.8075 10.0853 17.0246C10.0041 17.9997 9.96779 25.098 10.0353 26.7944C10.1122 28.7251 10.2218 29.4696 10.5785 30.4824C11.2156 32.2912 12.6213 33.7243 14.3927 34.3708C15.8432 34.9002 17.1253 35 22.4717 35C25.7393 35 27.7725 34.9437 28.6755 34.8283C30.4932 34.5959 31.8828 33.9384 32.9771 32.7928C34.0584 31.6609 34.6366 30.3097 34.8645 28.3819C34.9568 27.6016 34.9562 17.2738 34.8638 16.5361C34.6146 14.5453 34.044 13.2702 32.8828 12.109C31.9276 11.1538 30.9433 10.6271 29.5303 10.315C28.7872 10.1509 28.2404 10.0969 26.7459 10.0397C25.3257 9.98534 19.505 9.9873 18.002 10.0426ZM27.5768 12.3345C29.4411 12.4517 30.3859 12.8 31.2889 13.7029C32.1434 14.5575 32.4979 15.4301 32.658 17.0735C32.7386 17.8998 32.7777 24.9868 32.7111 26.6967C32.6527 28.1984 32.5852 28.776 32.39 29.4467C31.9686 30.8944 30.9593 31.9198 29.5059 32.3768C28.5165 32.6878 27.303 32.753 22.4961 32.753C16.8971 32.753 15.9249 32.669 14.7537 32.0846C14.282 31.8492 14.0199 31.6469 13.5736 31.1737C12.8121 30.3665 12.4605 29.4022 12.333 27.7713C12.252 26.7348 12.2169 20.4244 12.282 18.5878C12.3417 16.9035 12.412 16.2542 12.6089 15.5684C13.0894 13.895 14.308 12.8314 16.1458 12.4813C16.8157 12.3537 17.1758 12.3265 18.7592 12.284C20.5342 12.2362 26.5629 12.2708 27.5768 12.3345ZM28.6069 14.4415C28.2891 14.5671 27.9511 14.8899 27.8049 15.2077C27.6464 15.5519 27.6586 16.132 27.8313 16.4629C28.3998 17.5522 29.8969 17.5914 30.4829 16.5323C30.6153 16.2929 30.6294 16.2253 30.6291 15.8278C30.6287 15.3391 30.5402 15.0985 30.2455 14.7855C29.8604 14.3761 29.1497 14.2269 28.6069 14.4415ZM21.397 16.1744C20.134 16.3978 18.9955 16.98 18.0537 17.884C17.0577 18.8399 16.4044 20.0576 16.1724 21.3908C16.0745 21.9537 16.0745 23.0377 16.1724 23.6006C16.4038 24.9303 17.0498 26.137 18.0471 27.1023C18.9908 28.0157 20.1296 28.5992 21.397 28.8184C21.9659 28.9169 23.038 28.9173 23.601 28.8193C24.5532 28.6536 25.549 28.2235 26.3199 27.6449C29.0759 25.5765 29.7166 21.7749 27.7969 18.8809C27.4845 18.4099 26.5819 17.5073 26.1109 17.1949C25.3294 16.6765 24.4456 16.3226 23.5522 16.1704C23.0135 16.0786 21.9269 16.0807 21.397 16.1744ZM23.7662 18.531C25.0687 18.9582 26.0462 19.9452 26.4831 21.2745C26.6101 21.661 26.6196 21.7454 26.6199 22.4957C26.6202 23.2728 26.6146 23.3183 26.4644 23.7657C26.0862 24.8921 25.2835 25.7995 24.2379 26.2825C23.1707 26.7756 21.8247 26.7771 20.7623 26.2863C19.5984 25.7485 18.7392 24.7034 18.4421 23.4638C18.3093 22.9099 18.3093 22.0814 18.4421 21.5276C18.8104 19.9914 20.0556 18.7646 21.5954 18.4212C21.839 18.3669 22.1268 18.3503 22.6182 18.3622C23.2259 18.3769 23.3538 18.3957 23.7662 18.531Z" fill="#FFC000"/>
</g>
<defs>
<clipPath id="clip0_1701_2970">
<rect width="45" height="45" fill="white"/>
</clipPath>
</defs>
</svg>
