<svg width="45" height="45" viewBox="0 0 45 45" fill="none" xmlns="http://www.w3.org/2000/svg">
<g clip-path="url(#clip0_1701_2967)">
<path d="M22.5 45C34.9264 45 45 34.9264 45 22.5C45 10.0736 34.9264 0 22.5 0C10.0736 0 0 10.0736 0 22.5C0 34.9264 10.0736 45 22.5 45Z" fill="white"/>
<path fill-rule="evenodd" clip-rule="evenodd" d="M32.5284 12.103C32.4882 12.1189 31.5433 12.4792 30.4288 12.9038C29.3143 13.3283 27.0292 14.2017 25.3507 14.8445C23.6722 15.4874 19.5853 17.0511 16.2687 18.3196C12.952 19.588 10.0612 20.7103 9.84446 20.8135C9.25745 21.0931 8.93079 21.4838 9.01238 21.8088C9.05276 21.9697 9.28894 22.1968 9.54143 22.3176C9.65623 22.3726 11.0575 22.8242 12.6554 23.3211L15.5607 24.2248L15.7072 24.1376C15.7877 24.0897 18.6552 22.2969 22.0792 20.1536C25.5033 18.0103 28.4651 16.1571 28.6609 16.0355C28.9367 15.8643 29.076 15.8095 29.2787 15.7927C29.5034 15.7741 29.5479 15.7849 29.5928 15.8689C29.6346 15.947 29.6233 15.9968 29.5365 16.1156C29.4767 16.1975 28.0106 17.5338 26.2784 19.0852C24.5463 20.6366 22.1622 22.7731 20.9806 23.833C19.799 24.8929 18.8273 25.763 18.8213 25.7666C18.8053 25.7762 18.4171 31.2109 18.4171 31.4265V31.6112L18.6246 31.578C18.7388 31.5597 18.9354 31.4864 19.0616 31.415C19.1878 31.3437 19.961 30.6425 20.7797 29.857C21.5985 29.0715 22.2931 28.4288 22.3233 28.4288C22.3535 28.4288 23.6568 29.3659 25.2195 30.5111C26.7821 31.6564 28.1815 32.6503 28.3292 32.7198C28.7076 32.8979 29.2574 32.9022 29.5101 32.7292C29.7252 32.582 29.9553 32.2413 30.0568 31.92C30.0991 31.7857 30.9945 27.6549 32.0465 22.7403C34.1761 12.7909 34.1012 13.2131 33.8382 12.6487C33.6543 12.2542 33.4117 12.1008 32.9479 12.0855C32.7575 12.0792 32.5687 12.0871 32.5284 12.103Z" fill="#FFC000"/>
</g>
<defs>
<clipPath id="clip0_1701_2967">
<rect width="45" height="45" fill="white"/>
</clipPath>
</defs>
</svg>
