<svg width="70" height="70" viewBox="0 0 70 70" fill="none" xmlns="http://www.w3.org/2000/svg">
<g clip-path="url(#clip0_1702_1226)">
<path d="M35 70C54.33 70 70 54.33 70 35C70 15.67 54.33 0 35 0C15.67 0 0 15.67 0 35C0 54.33 15.67 70 35 70Z" fill="white"/>
<path fill-rule="evenodd" clip-rule="evenodd" d="M49.9398 20.9441C49.8834 20.9664 48.5607 21.4709 47.0004 22.0652C45.4401 22.6596 42.2409 23.8822 39.891 24.7822C37.5411 25.6822 31.8195 27.8715 27.1762 29.6473C22.5328 31.4232 18.4856 32.9943 18.1822 33.1388C17.3604 33.5302 16.9031 34.0772 17.0173 34.5323C17.0739 34.7575 17.4045 35.0755 17.758 35.2446C17.9187 35.3215 19.8805 35.9537 22.1176 36.6495L26.1849 37.9146L26.39 37.7926C26.5028 37.7255 30.5172 35.2155 35.3109 32.2149C40.1046 29.2143 44.2511 26.6199 44.5252 26.4496C44.9114 26.2099 45.1063 26.1332 45.3902 26.1097C45.7048 26.0836 45.767 26.0987 45.8299 26.2164C45.8884 26.3257 45.8726 26.3954 45.7511 26.5618C45.6674 26.6764 43.6149 28.5473 41.1898 30.7192C38.7648 32.8912 35.4271 35.8823 33.7728 37.3661C32.1185 38.8499 30.7582 40.0681 30.7498 40.0731C30.7274 40.0866 30.184 47.6951 30.184 47.997V48.2556L30.4745 48.2091C30.6343 48.1835 30.9096 48.0808 31.0862 47.9809C31.2629 47.881 32.3454 46.8994 33.4916 45.7997C34.6379 44.7001 35.6103 43.8002 35.6526 43.8002C35.6949 43.8002 37.5195 45.1121 39.7072 46.7155C41.895 48.3189 43.8541 49.7104 44.0609 49.8077C44.5906 50.0569 45.3604 50.063 45.7142 49.8209C46.0152 49.6147 46.3375 49.1377 46.4795 48.6879C46.5388 48.4999 47.7923 42.7167 49.265 35.8364C52.2466 21.9072 52.1417 22.4983 51.7734 21.7081C51.5161 21.1559 51.1764 20.941 50.527 20.9197C50.2605 20.9109 49.9962 20.9219 49.9398 20.9441Z" fill="#FFC000"/>
</g>
<defs>
<clipPath id="clip0_1702_1226">
<rect width="70" height="70" fill="white"/>
</clipPath>
</defs>
</svg>
