<svg width="40" height="40" viewBox="0 0 40 40" fill="none" xmlns="http://www.w3.org/2000/svg">
<g clip-path="url(#clip0_1706_2949)">
<path d="M40 0H0V40H40V0Z" fill="white"/>
<path fill-rule="evenodd" clip-rule="evenodd" d="M22.0752 8.02906C21.3009 8.14428 20.825 8.27881 20.2998 8.53096C18.9246 9.19121 18.0205 10.4311 17.6794 12.1246C17.5673 12.6807 17.519 13.623 17.5189 15.2536L17.5188 16.7653H15.7594H14V18.9216V21.0779H15.7594H17.5188V26.539V32H19.6617H21.8045V26.539V21.0779H23.5631H25.3216L25.3436 20.9724C25.3557 20.9144 25.4687 20.0232 25.5948 18.9919C25.7208 17.9607 25.8356 17.0378 25.85 16.9411L25.8762 16.7653H23.8369H21.7977L21.8152 15.0426C21.8323 13.3754 21.8362 13.3102 21.9388 13.0171C22.0132 12.8046 22.1073 12.6492 22.2544 12.4965C22.6582 12.0768 23.1285 11.9861 24.906 11.9848L26 11.984V10.0685V8.15309L25.6729 8.12286C24.5093 8.01528 22.517 7.96334 22.0752 8.02906Z" fill="#FFC000"/>
</g>
<defs>
<clipPath id="clip0_1706_2949">
<rect width="40" height="40" fill="white"/>
</clipPath>
</defs>
</svg>
