<svg width="40" height="40" viewBox="0 0 40 40" fill="none" xmlns="http://www.w3.org/2000/svg">
<g clip-path="url(#clip0_1706_2943)">
<path d="M40 0H0V40H40V0Z" fill="white"/>
<path fill-rule="evenodd" clip-rule="evenodd" d="M16.002 7.04259C14.4489 7.09974 13.749 7.19681 12.8032 7.48619C11.7078 7.82134 10.8416 8.34729 10.059 9.15246C8.83549 10.4112 8.26987 11.8075 8.08527 14.0246C8.00409 14.9997 7.96779 22.098 8.0353 23.7944C8.11219 25.7251 8.2218 26.4696 8.57855 27.4824C9.21558 29.2912 10.6213 30.7243 12.3927 31.3708C13.8432 31.9002 15.1253 32 20.4717 32C23.7393 32 25.7725 31.9437 26.6755 31.8283C28.4932 31.5959 29.8828 30.9384 30.9771 29.7928C32.0584 28.6609 32.6366 27.3097 32.8645 25.3819C32.9568 24.6016 32.9562 14.2738 32.8638 13.5361C32.6146 11.5453 32.044 10.2702 30.8828 9.10899C29.9276 8.15375 28.9433 7.62707 27.5303 7.31502C26.7872 7.15094 26.2404 7.09686 24.7459 7.03966C23.3257 6.98534 17.505 6.9873 16.002 7.04259ZM25.5768 9.33452C27.4411 9.45171 28.3859 9.8 29.2889 10.7029C30.1434 11.5575 30.4979 12.4301 30.658 14.0735C30.7386 14.8998 30.7777 21.9868 30.7111 23.6967C30.6527 25.1984 30.5852 25.776 30.39 26.4467C29.9686 27.8944 28.9593 28.9198 27.5059 29.3768C26.5165 29.6878 25.303 29.753 20.4961 29.753C14.8971 29.753 13.9249 29.669 12.7537 29.0846C12.282 28.8492 12.0199 28.6469 11.5736 28.1737C10.8121 27.3665 10.4605 26.4022 10.333 24.7713C10.252 23.7348 10.2169 17.4244 10.282 15.5878C10.3417 13.9035 10.412 13.2542 10.6089 12.5684C11.0894 10.895 12.308 9.83136 14.1458 9.48131C14.8157 9.35372 15.1758 9.32651 16.7592 9.28396C18.5342 9.23624 24.5629 9.27082 25.5768 9.33452ZM26.6069 11.4415C26.2891 11.5671 25.9511 11.8899 25.8049 12.2077C25.6464 12.5519 25.6586 13.132 25.8313 13.4629C26.3998 14.5522 27.8969 14.5914 28.4829 13.5323C28.6153 13.2929 28.6294 13.2253 28.6291 12.8278C28.6287 12.3391 28.5402 12.0985 28.2455 11.7855C27.8604 11.3761 27.1497 11.2269 26.6069 11.4415ZM19.397 13.1744C18.134 13.3979 16.9955 13.98 16.0537 14.884C15.0577 15.8399 14.4044 17.0576 14.1724 18.3908C14.0745 18.9537 14.0745 20.0377 14.1724 20.6006C14.4038 21.9303 15.0498 23.137 16.0471 24.1023C16.9908 25.0157 18.1296 25.5992 19.397 25.8184C19.9659 25.9169 21.038 25.9173 21.601 25.8193C22.5532 25.6536 23.549 25.2235 24.3199 24.6449C27.0759 22.5765 27.7166 18.7749 25.7969 15.8809C25.4845 15.4099 24.5819 14.5073 24.1109 14.1949C23.3294 13.6765 22.4456 13.3226 21.5522 13.1704C21.0135 13.0786 19.9269 13.0807 19.397 13.1744ZM21.7662 15.531C23.0687 15.9582 24.0462 16.9452 24.4831 18.2745C24.6101 18.6609 24.6196 18.7454 24.6199 19.4957C24.6202 20.2728 24.6146 20.3183 24.4644 20.7657C24.0862 21.8921 23.2835 22.7995 22.2379 23.2825C21.1707 23.7756 19.8247 23.7771 18.7623 23.2863C17.5984 22.7485 16.7392 21.7034 16.4421 20.4638C16.3093 19.9099 16.3093 19.0814 16.4421 18.5276C16.8104 16.9914 18.0556 15.7646 19.5954 15.4212C19.839 15.3669 20.1268 15.3503 20.6182 15.3622C21.2259 15.3769 21.3538 15.3957 21.7662 15.531Z" fill="#FFC000"/>
</g>
<defs>
<clipPath id="clip0_1706_2943">
<rect width="40" height="40" fill="white"/>
</clipPath>
</defs>
</svg>
