<svg width="40" height="40" viewBox="0 0 40 40" fill="none" xmlns="http://www.w3.org/2000/svg">
<g clip-path="url(#clip0_1706_2946)">
<path d="M40 0H0V40H40V0Z" fill="white"/>
<path fill-rule="evenodd" clip-rule="evenodd" d="M17.3984 10.7831C13.7201 10.8636 11.3604 11.0483 10.5349 11.3202C9.77175 11.5715 9.09958 12.162 8.73171 12.904C8.01623 14.3473 7.76589 20.144 8.24987 24.0613C8.35549 24.9162 8.52746 25.6496 8.71003 26.0242C9.11286 26.8503 9.86501 27.4685 10.7404 27.6929C12.1171 28.0458 16.534 28.2469 21.7715 28.195C24.673 28.1663 26.158 28.1212 27.7041 28.0152C30.2019 27.8438 30.8605 27.6528 31.6393 26.8736C32.1294 26.3833 32.3415 25.9784 32.5112 25.2087C33.1207 22.446 33.0945 15.9663 32.4643 13.5761C32.2872 12.9042 32.0691 12.5175 31.619 12.0769C31.079 11.5483 30.5381 11.3027 29.584 11.1527C27.5717 10.8365 22.2818 10.6761 17.3984 10.7831ZM22.5881 18.3622C23.628 18.9588 24.4794 19.4615 24.4801 19.4791C24.4812 19.5046 18.1777 23.1618 18.0273 23.223C18.0053 23.232 17.9873 21.5469 17.9873 19.4783V15.7172L19.3423 16.4972C20.0875 16.9263 21.5481 17.7655 22.5881 18.3622Z" fill="#FFC000"/>
</g>
<defs>
<clipPath id="clip0_1706_2946">
<rect width="40" height="40" fill="white"/>
</clipPath>
</defs>
</svg>
